REM DIRINDEX 1\2,1\3
REM DIRNAME folder01,folder02,folder03
TITLE ""
FILE "1321-1340.mp3" MP3
  TRACK 01 AUDIO
    TITLE "0:"
    INDEX 01 00:00:00
  TRACK 02 AUDIO
    TITLE "2:cjc039_1641"
    INDEX 01 00:00:27
  TRACK 03 AUDIO
    TITLE "0:"
    INDEX 01 00:01:19
  TRACK 04 AUDIO
    TITLE "3:cjc039_1642"
    INDEX 01 00:01:71
  TRACK 05 AUDIO
    TITLE "0:"
    INDEX 01 00:05:36
  TRACK 06 AUDIO
    TITLE "2:cjc039_1643"
    INDEX 01 00:07:15
  TRACK 07 AUDIO
    TITLE "0:"
    INDEX 01 00:08:36
  TRACK 08 AUDIO
    TITLE "3:cjc039_1644"
    INDEX 01 00:09:08
  TRACK 09 AUDIO
    TITLE "0:"
    INDEX 01 00:13:10
  TRACK 10 AUDIO
    TITLE "2:cjc039_1645"
    INDEX 01 00:14:51
  TRACK 11 AUDIO
    TITLE "0:"
    INDEX 01 00:15:44
  TRACK 12 AUDIO
    TITLE "3:cjc039_1646"
    INDEX 01 00:16:16
  TRACK 13 AUDIO
    TITLE "0:"
    INDEX 01 00:19:26
  TRACK 14 AUDIO
    TITLE "2:cjc039_1647"
    INDEX 01 00:21:06
  TRACK 15 AUDIO
    TITLE "0:"
    INDEX 01 00:22:38
  TRACK 16 AUDIO
    TITLE "3:cjc039_1648"
    INDEX 01 00:23:18
  TRACK 17 AUDIO
    TITLE "0:"
    INDEX 01 00:27:63
  TRACK 18 AUDIO
    TITLE "2:cjc039_1649"
    INDEX 01 00:29:38
  TRACK 19 AUDIO
    TITLE "0:"
    INDEX 01 00:30:36
  TRACK 20 AUDIO
    TITLE "3:cjc039_1650"
    INDEX 01 00:31:12
  TRACK 21 AUDIO
    TITLE "0:"
    INDEX 01 00:33:58
  TRACK 22 AUDIO
    TITLE "2:cjc039_1651"
    INDEX 01 00:35:35
  TRACK 23 AUDIO
    TITLE "0:"
    INDEX 01 00:36:54
  TRACK 24 AUDIO
    TITLE "3:cjc039_1652"
    INDEX 01 00:37:30
  TRACK 25 AUDIO
    TITLE "0:"
    INDEX 01 00:40:30
  TRACK 26 AUDIO
    TITLE "2:cjc039_1653"
    INDEX 01 00:42:08
  TRACK 27 AUDIO
    TITLE "0:"
    INDEX 01 00:43:11
  TRACK 28 AUDIO
    TITLE "3:cjc039_1654"
    INDEX 01 00:43:66
  TRACK 29 AUDIO
    TITLE "0:"
    INDEX 01 00:46:68
  TRACK 30 AUDIO
    TITLE "2:cjc039_1655"
    INDEX 01 00:48:46
  TRACK 31 AUDIO
    TITLE "0:"
    INDEX 01 00:49:69
  TRACK 32 AUDIO
    TITLE "3:cjc039_1656"
    INDEX 01 00:50:48
  TRACK 33 AUDIO
    TITLE "0:"
    INDEX 01 00:54:27
  TRACK 34 AUDIO
    TITLE "2:cjc039_1657"
    INDEX 01 00:56:04
  TRACK 35 AUDIO
    TITLE "0:"
    INDEX 01 00:57:27
  TRACK 36 AUDIO
    TITLE "3:cjc039_1658"
    INDEX 01 00:58:07
  TRACK 37 AUDIO
    TITLE "0:"
    INDEX 01 01:00:72
  TRACK 38 AUDIO
    TITLE "2:cjc039_1659"
    INDEX 01 01:02:52
  TRACK 39 AUDIO
    TITLE "0:"
    INDEX 01 01:04:03
  TRACK 40 AUDIO
    TITLE "3:cjc039_1660"
    INDEX 01 01:04:52
  TRACK 41 AUDIO
    TITLE "0:"
    INDEX 01 01:08:09
  TRACK 42 AUDIO
    TITLE "2:cjc039_1661"
    INDEX 01 01:09:59
  TRACK 43 AUDIO
    TITLE "0:"
    INDEX 01 01:10:57
  TRACK 44 AUDIO
    TITLE "3:cjc039_1662"
    INDEX 01 01:11:35
  TRACK 45 AUDIO
    TITLE "0:"
    INDEX 01 01:14:25
  TRACK 46 AUDIO
    TITLE "2:cjc039_1663"
    INDEX 01 01:16:05
  TRACK 47 AUDIO
    TITLE "0:"
    INDEX 01 01:17:22
  TRACK 48 AUDIO
    TITLE "3:cjc039_1664"
    INDEX 01 01:17:65
  TRACK 49 AUDIO
    TITLE "0:"
    INDEX 01 01:22:05
  TRACK 50 AUDIO
    TITLE "2:cjc039_1665"
    INDEX 01 01:23:60
  TRACK 51 AUDIO
    TITLE "0:"
    INDEX 01 01:24:61
  TRACK 52 AUDIO
    TITLE "3:cjc039_1666"
    INDEX 01 01:25:35
  TRACK 53 AUDIO
    TITLE "0:"
    INDEX 01 01:28:55
  TRACK 54 AUDIO
    TITLE "2:cjc039_1667"
    INDEX 01 01:30:28
  TRACK 55 AUDIO
    TITLE "0:"
    INDEX 01 01:31:36
  TRACK 56 AUDIO
    TITLE "3:cjc039_1668"
    INDEX 01 01:32:15
  TRACK 57 AUDIO
    TITLE "0:"
    INDEX 01 01:35:04
  TRACK 58 AUDIO
    TITLE "2:cjc039_1669"
    INDEX 01 01:36:56
  TRACK 59 AUDIO
    TITLE "0:"
    INDEX 01 01:37:66
  TRACK 60 AUDIO
    TITLE "3:cjc039_1670"
    INDEX 01 01:38:45
  TRACK 61 AUDIO
    TITLE "0:"
    INDEX 01 01:41:42
  TRACK 62 AUDIO
    TITLE "2:cjc039_1671"
    INDEX 01 01:43:13
  TRACK 63 AUDIO
    TITLE "0:"
    INDEX 01 01:44:52
  TRACK 64 AUDIO
    TITLE "3:cjc039_1672"
    INDEX 01 01:45:26
  TRACK 65 AUDIO
    TITLE "0:"
    INDEX 01 01:49:00
  TRACK 66 AUDIO
    TITLE "2:cjc039_1673"
    INDEX 01 01:50:51
  TRACK 67 AUDIO
    TITLE "0:"
    INDEX 01 01:51:42
  TRACK 68 AUDIO
    TITLE "3:cjc039_1674"
    INDEX 01 01:52:30
  TRACK 69 AUDIO
    TITLE "0:"
    INDEX 01 01:54:72
  TRACK 70 AUDIO
    TITLE "2:cjc039_1675"
    INDEX 01 01:56:51
  TRACK 71 AUDIO
    TITLE "0:"
    INDEX 01 01:57:60
  TRACK 72 AUDIO
    TITLE "3:cjc039_1676"
    INDEX 01 01:58:38
  TRACK 73 AUDIO
    TITLE "0:"
    INDEX 01 02:02:03
  TRACK 74 AUDIO
    TITLE "2:cjc039_1677"
    INDEX 01 02:03:51
  TRACK 75 AUDIO
    TITLE "0:"
    INDEX 01 02:04:62
  TRACK 76 AUDIO
    TITLE "3:cjc039_1678"
    INDEX 01 02:05:40
  TRACK 77 AUDIO
    TITLE "0:"
    INDEX 01 02:09:09
  TRACK 78 AUDIO
    TITLE "2:cjc039_1679"
    INDEX 01 02:10:61
  TRACK 79 AUDIO
    TITLE "0:"
    INDEX 01 02:11:70
  TRACK 80 AUDIO
    TITLE "3:cjc039_1680"
    INDEX 01 02:12:50
  TRACK 81 AUDIO
    TITLE "0:"
    INDEX 01 02:15:56
